<svg xmlns="http://www.w3.org/2000/svg" >
    <g fill="#61DAFB">
        <path d="M49.8456998,20.0652093 L33.1421682,31.2146243 L38.7689062,17.8666523 L41.4361238,11.6498329 C42.5182583,9.64374822 44.5535383,8.36024113 46.7756174,8.32475741 C48.9030324,8.32475741 50.7890898,9.34625844 51.9853995,11.1803008 C53.2149499,13.0147016 53.287574,16.0093126 52.055133,17.8666523 C51.5023231,18.7361827 50.6897286,19.5128819 49.848229,20.0652093 L49.8456998,20.0652093 Z M41.529704,9.73026034 L33.268628,29.383435 L32.9004493,27.2403392 L30.4171404,11.1286385 C30.3123594,10.1472444 30.7145015,9.31797366 31.497107,8.77415995 L32.6829385,8.06304674 C32.7519494,7.81516886 32.4072561,7.73133844 32.243581,7.64606267 L29.9192501,7.62402105 C29.7703889,5.30170163 30.7802606,3.19401699 32.7393034,1.92282986 C34.254653,0.931679682 36.5695898,0.670793635 38.2623444,1.47621607 C40.458409,2.37630906 41.9864045,4.73331693 42.0228972,7.13729875 C42.0127804,8.02763561 41.8617513,8.9400141 41.529704,9.73531907 L41.529704,9.73026034 Z M25.6655041,29.383435 L17.5330557,9.71979593 C16.6604831,7.61337679 17.0286618,4.84689824 18.5241391,3.1444499 C20.1225909,1.35723983 22.3782722,0.601958721 24.7018805,1.20394734 C26.6681496,1.68871229 28.5072362,3.58052194 28.9928418,5.60181866 C29.222276,6.35998527 29.1886738,7.27216575 29.1438709,8.09886312 L25.6680333,29.383435 L25.6655041,29.383435 Z M8.28234143,19.3434766 C6.61271089,17.9007229 5.86876601,15.9735931 6.1086783,13.7488262 C6.35220372,11.4965134 8.1338415,9.29142196 10.2608952,8.61279469 C12.4472043,7.93166326 14.8279001,8.47041533 16.4158738,10.1031274 C17.0824975,10.7359643 17.4947564,11.4854236 17.8387271,12.2606398 L25.6994676,31.2146243 L8.28234143,19.345623 L8.28234143,19.3434766 Z M6.49817445,33.9566066 C4.32451133,33.7058088 2.65054503,32.4987288 1.6280273,30.4491306 C0.593947534,28.3762625 0.86023572,25.4405612 2.25454523,23.6085182 C3.77025613,21.7388 5.96379151,20.800986 8.17358601,21.25715 C9.07650891,21.4067422 9.82768006,21.8060242 10.540552,22.2655124 L27.4496711,33.9614083 L6.49817445,33.9566066 Z M52.4048846,33.9566066 C54.5785478,33.7058088 56.2528754,32.4987288 57.2750318,30.4491306 C58.3116408,28.3762625 58.0399329,25.4405612 56.6495978,23.6085182 C55.1331643,21.7388 52.9389063,20.800986 50.730557,21.25715 C49.8301633,21.4067422 49.076463,21.8060242 48.3650363,22.2655124 L31.4548333,33.9614083 L52.4023554,33.9566066 L52.4048846,33.9566066 Z M17.9438511,38.8376878 L17.9438511,52.7477044 L25.3790423,52.7477044 L25.4220657,50.4292677 L20.8811648,50.4292677 L20.8811648,47.1047112 L25.4220657,47.1047112 L25.4220657,44.5233886 L20.8811648,44.5233886 L20.8811648,41.4188595 L25.4220657,41.4188595 L25.4220657,38.8376878 L17.9438511,38.8376878 Z M5.4351585,38.4617414 L13.8984614,46.6168933 L13.8984614,38.9796804 L16.6368288,38.9796804 L16.6368288,53.1236508 L8.19103199,44.8096265 L8.19103199,52.6597135 L5.4351585,52.6597135 L5.4351585,38.4617414 Z M45.6315079,44.5499685 C45.2390752,43.7821831 44.4780348,41.609612 46.443464,39.4890636 C48.4077063,37.3698582 52.381588,39.1862987 52.381588,39.1862987 L52.381588,41.9113324 C52.381588,41.9113324 48.9504326,39.9992909 48.0661892,41.738537 C47.1819458,43.4777832 49.8270872,44.2770386 50.7305906,44.668457 C51.634094,45.0598755 52.9802072,46.0188783 53.1945826,47.5333 C53.4077711,49.0475723 53.5315726,51.2326603 51.3660886,52.4677734 C50.0849074,53.1985125 47.9138238,53.606852 45.4172809,52.2905446 L45.4603043,49.2208154 C45.4603043,49.2208154 46.7858712,50.6912174 48.6661436,50.6055658 C50.5465644,50.5190189 51.1011216,48.4421917 49.6912882,47.4921156 C47.7648872,46.1919674 46.0163574,45.3029175 45.6315079,44.5499685 Z M26.1335843,39.2145249 L32.6276008,53.4995972 L35.4763455,47.6479846 L38.3244969,53.4995972 L44.7057623,39.2145249 L41.4588282,39.2145249 L38.0405422,47.0164771 L36.7857415,44.3767345 L39.1787346,39.2710845 L36.1602698,39.2136342 L35.475307,41.1063751 L34.563952,39.2136342 L31.6576449,39.2136342 L33.9939657,44.2624278 L32.7976175,46.9588784 L29.1519007,39.2145249 L26.1316557,39.2145249 L26.1335843,39.2145249 Z M53.0412464,62.3577878 L50.0257621,62.3577878 L50.0257621,56.8791742 L49.4585341,56.8791742 L49.4585341,62.8728356 L53.0412464,62.8728356 L53.0412464,62.3577878 Z M42.9658907,57.5811346 L42.9909154,57.5811346 L44.0711512,60.5468132 L41.8856549,60.5468132 L42.9658907,57.5811346 Z M44.9094808,62.8728356 L45.5100752,62.8728356 L43.2620171,56.8791742 L42.694789,56.8791742 L40.4425601,62.8728356 L41.0473253,62.8728356 L41.7146524,61.0369393 L44.2421537,61.0369393 L44.9094808,62.8728356 Z M35.7350167,62.8728356 L35.7350167,57.394222 L37.7495103,57.394222 L37.7495103,56.8791742 L33.1491242,56.8791742 L33.1491242,57.394222 L35.1636178,57.394222 L35.1636178,62.8728356 L35.7350167,62.8728356 Z M29.1422742,62.8728356 L29.1422742,56.8791742 L28.5750462,56.8791742 L28.5750462,62.8728356 L29.1422742,62.8728356 Z M24.3721688,60.4388193 L24.3721688,59.8614673 L21.9364249,59.8614673 L21.9364249,60.3599006 L23.8049408,60.3599006 L23.8049408,60.5717348 C23.8049408,61.7015172 23.0375146,62.44086 21.873863,62.44086 C20.5850876,62.44086 19.7550995,61.4232252 19.7550995,59.8406992 C19.7550995,58.2789413 20.5684044,57.3111498 21.873863,57.3111498 C22.7914378,57.3111498 23.496302,57.8261976 23.7423789,58.6818416 L24.3346317,58.6818416 C24.1094088,57.5354448 23.1376137,56.7836412 21.873863,56.7836412 C20.2305701,56.7836412 19.1711883,57.9840349 19.1711883,59.8406992 C19.1711883,61.7305924 20.2430824,62.9683687 21.873863,62.9683687 C23.4379109,62.9683687 24.3721688,62.0213452 24.3721688,60.4388193 L24.3721688,60.4388193 Z M15.0016773,62.8728356 L15.0016773,56.8791742 L14.4344493,56.8791742 L14.4344493,62.8728356 L15.0016773,62.8728356 Z M6.00655732,57.394222 L7.38291944,57.394222 C8.86355142,57.394222 9.6893687,58.2830949 9.6893687,59.8780817 C9.6893687,61.4689149 8.86355142,62.3577878 7.38291944,62.3577878 L6.00655732,62.3577878 L6.00655732,57.394222 Z M5.4351585,56.8791742 L5.4351585,62.8728356 L7.4162858,62.8728356 C9.22223973,62.8728356 10.2691091,61.7721285 10.2691091,59.8739281 C10.2691091,57.9798813 9.21806894,56.8791742 7.4162858,56.8791742 L5.4351585,56.8791742 Z" id="nbcnewsdigitalstacked"></path>
    </g>
</svg>
